{"title":"James Arthur - Impossible {M4A+MP4} (1080p) x264 [VX] [P2PDL]","uid":7977641,"size":41905686,"categoryP":"video","categoryS":"music_videos","magnet":"?xt=urn:btih:c624483fb3487d9c1ffd26a7c4a456d89a4e67e4&amp;dn=James+Arthur+-+Impossible+%7BM4A%2BMP4%7D+%281080p%29+x264+%5BVX%5D+%5BP2PDL%5D&amp;tr=udp%3A%2F%2Ftracker.openbittorrent.com%3A80&amp;tr=udp%3A%2F%2Fopen.demonii.com%3A1337&amp;tr=udp%3A%2F%2Ftracker.coppersurfer.tk%3A6969&amp;tr=udp%3A%2F%2Fexodus.desync.com%3A6969","seeders":6,"leechers":0,"uploader":"Vitamin_X","files":-1,"time":1357046895,"description":"________________________  Visit us at _________________________\n      &lt;a href=&quot;\nhttp://p2pdl.com&quot; rel=&quot;nofollow&quot; target=&quot;_NEW&quot;&gt;\nhttp://p2pdl.com&lt;/a&gt;  ____________________________ &lt;a href=&quot; http://p2pdl.com&quot; rel=&quot;nofollow&quot; target=&quot;_NEW&quot;&gt; http://p2pdl.com&lt;/a&gt;\n\n\n &lt;a href=&quot;\nhttp://www.shotpix.com/images/39961745364995423297.png&quot; rel=&quot;nofollow&quot; target=&quot;_NEW&quot;&gt;\nhttp://www.shotpix.com/images/39961745364995423297.png&lt;/a&gt;\n\n\nJames Arthur - Impossible {M4A+MP4} (1080p) x264 [VX] [P2PDL]\n\n\n                             1080p Full HD MP4 Video\n                                       +\n                              128 Kbps/VBR M4A Audio\n\nGeneral\nComplete name                  : James Arthur - Impossible (1080p) x264 [VX] [P2PDL].mp4\nFormat                         : MPEG-4\nFormat profile                 : Base Media / Version 2\nCodec ID                       : mp42\nFile size                      : 36.0 MiB\nDuration                       : 3mn 34s\nOverall bit rate mode          : Variable\nOverall bit rate               : 1 408 Kbps\n\nVideo\nID                             : 1\nFormat                         : AVC\nFormat/Info                    : Advanced Video Codec\nWidth                          : 1 920 pixels\nHeight                         : 1 080 pixels\nDisplay aspect ratio           : 16:9\nFrame rate mode                : Constant\nFrame rate                     : 25.000 fps\nScan type                      : Progressive\nBits/(Pixel*Frame)             : 0.024\nStream size                    : 32.6 MiB (91%)\nWriting library                : x264 core 128\n\nAudio\nID                             : 2\nFormat                         : AAC\nFormat/Info                    : Advanced Audio Codec\nFormat profile                 : LC\nCodec ID                       : 40\nDuration                       : 3mn 34s\nBit rate mode                  : Variable\nBit rate                       : 128 Kbps\nMaximum bit rate               : 232 Kbps\nChannel(s)                     : 2 channels\nChannel positions              : Front: L R\nSampling rate                  : 48.0 KHz\nStream size                    : 3.27 MiB (9%)\n\nSubtitles                      : No\n\nScreens:\n &lt;a href=&quot;\nhttp://www.shotpix.com/images/82505839171590506984.jpg&quot; rel=&quot;nofollow&quot; target=&quot;_NEW&quot;&gt;\nhttp://www.shotpix.com/images/82505839171590506984.jpg&lt;/a&gt; &lt;a href=&quot;\nhttp://www.shotpix.com/images/44554552904303913690.jpg&quot; rel=&quot;nofollow&quot; target=&quot;_NEW&quot;&gt;\nhttp://www.shotpix.com/images/44554552904303913690.jpg&lt;/a&gt;\n\nThumbs:\n &lt;a href=&quot;\nhttp://www.shotpix.com/images/72908334486327471328.jpg&quot; rel=&quot;nofollow&quot; target=&quot;_NEW&quot;&gt;\nhttp://www.shotpix.com/images/72908334486327471328.jpg&lt;/a&gt;\n\n------------------------------------------------------------------------\n\nNotes:\n\n* Recommended to use latest version VLC Media Player.\n* Install shark007 codecs in case of any kind of problem in playback (For non-VLC Media Player users).\n* Alternatively, install Core AVC codecs, the fastest decoder that there is coupled with Community Center Codec Pack and play on Windows Media Player Classic.\n\nGreets to: VYTO, a2zRG, stumpie1971, Sheychi, staff members at ExtraTorrent, TPB,KAT, 1337x, PublicHD, Ahashare, TorrentMafia, Limetorrents, BTScene, P2PDL, and all others\n\nEncoder Notes: Looking For Early Access To Anything You Can Provide DVDScr, R5, DVDRips, BluRay, Direct Audio, Early Music\nReleases, Seedboxes, Links, Dedicated Servers anything u can provide, Advance / Promo CDs/DVDs. If You Got anything to\noffer contact me at &quot;&lt;a class=&quot;__cf_email__&quot; href=&quot;/cdn-cgi/l/email-protection&quot; data-cfemail=&quot;9dedeffaddf5e8eef5b3fef2f0&quot;&gt;[email&amp;#160;protected]&lt;/a&gt;&lt;script cf-hash='f9e31' type=&quot;text/javascript&quot;&gt;\n/* &lt;![CDATA[ */!function(){try{var t=&quot;currentScript&quot;in document?document.currentScript:function(){for(var t=document.getElementsByTagName(&quot;script&quot;),e=t.length;e--;)if(t[e].getAttribute(&quot;cf-hash&quot;))return t[e]}();if(t&amp;&amp;t.previousSibling){var e,r,n,i,c=t.previousSibling,a=c.getAttribute(&quot;data-cfemail&quot;);if(a){for(e=&quot;&quot;,r=parseInt(a.substr(0,2),16),n=2;a.length-n;n+=2)i=parseInt(a.substr(n,2),16)^r,e+=String.fromCharCode(i);e=document.createTextNode(e),c.parentNode.replaceChild(e,c)}}}catch(u){}}();/* ]]&gt; */&lt;/script&gt;&quot;\n\nFacebook Fan Page: www . facebook . com / p2pdl","torrent":{"xt":"urn:btih:c624483fb3487d9c1ffd26a7c4a456d89a4e67e4","amp;dn":"James+Arthur+-+Impossible+%7BM4A%2BMP4%7D+%281080p%29+x264+%5BVX%5D+%5BP2PDL%5D","amp;tr":["udp%3A%2F%2Ftracker.openbittorrent.com%3A80","udp%3A%2F%2Fopen.demonii.com%3A1337","udp%3A%2F%2Ftracker.coppersurfer.tk%3A6969","udp%3A%2F%2Fexodus.desync.com%3A6969"],"infoHash":"c624483fb3487d9c1ffd26a7c4a456d89a4e67e4","infoHashBuffer":{"type":"Buffer","data":[198,36,72,63,179,72,125,156,31,253,38,167,196,164,86,216,154,78,103,228]},"announce":[],"urlList":[]}}